<svg viewBox="0 0 204.43 299.89" version="1.1" xmlns="http://www.w3.org/2000/svg" id="Layer_1">
  
  <defs>
    <style>
      .st0 {
        fill: #59916d;
      }

      .st1 {
        fill: #f8c746;
      }

      .st2 {
        fill: #84dee0;
      }

      .st3 {
        fill: #a9cb44;
      }
    </style>
  </defs>
  <g>
    <path d="M40.44,88.05c17.09-.36,34.07-2.87,50.56-7.29-22.11-5.26-43.27-13.63-63.11-24.98-2.87,8.13-4.42,16.85-4.42,25.94s0,4.18.24,6.34h16.73Z" class="st0"></path>
    <path d="M76.3,127.26c5.02-3.83,10.28-7.53,15.54-10.88-20.32-4.06-41-4.9-61.56-2.39,2.03,4.54,4.42,8.73,7.17,12.79,12.91-1.2,25.94-1.08,38.85.6h0v-.12Z" class="st3"></path>
    <path d="M100.69,111c11.24-6.34,23.07-11.71,35.38-15.78H24.54c.72,4.06,1.67,8.01,2.99,11.95,24.5-3.11,49.01-1.79,73.03,3.94h0l.12-.12Z" class="st3"></path>
    <path d="M66.74,66.06c12.31,4.54,25.1,8.01,38.13,10.28,9.8-3.47,19.36-7.53,28.57-12.31-6.1-12.43-18.77-20.56-32.87-20.56s-28.09,9.08-33.71,22.59h-.12Z" class="st1"></path>
    <path d="M148.86,17.88c-8.85-6.45-19.13-11.12-30.36-13.51l-6.22,33.71c5.14,1.43,9.92,3.83,14.22,7.05l22.35-27.37h0v.12Z" class="st2"></path>
    <path d="M83.95,39.76l-11.48-31.2c-9.08,3.71-17.33,9.08-24.38,15.78l25.46,21.52c3.23-2.51,6.69-4.54,10.4-6.1h0Z" class="st2"></path>
    <path d="M100.57,36.53c1.67,0,3.35,0,4.9.24l6.22-33.47c-2.99-.36-5.98-.48-9.08-.48-8.13,0-15.9,1.2-23.31,3.47l11.48,31.44c3.23-.72,6.45-1.2,9.8-1.2h0Z" class="st2"></path>
    <path d="M68.29,50.76l-25.1-21.28c-5.14,5.86-9.44,12.43-12.67,19.6,9.56,5.5,19.48,10.28,29.76,14.34,1.91-4.78,4.78-9.08,8.13-12.79h0l-.12.12Z" class="st2"></path>
    <path d="M42.59,133.23c3.94,4.54,8.25,8.61,13.15,12.19,4.18-4.18,8.37-8.13,12.91-11.95-8.61-.72-17.33-.84-25.94-.24h-.12Z" class="st3"></path>
    <path d="M154.48,22.31l-22.47,27.61c3.11,3.23,5.74,6.81,7.65,10.88,10.52-5.98,20.56-12.91,30-20.68-4.18-6.69-9.32-12.67-15.18-17.81h0Z" class="st2"></path>
    <path d="M105.71,83.75h-.24c-4.78,1.67-9.68,3.11-14.58,4.42h90.49c.12-2.15.24-4.18.24-6.34,0-12.79-2.99-24.74-8.37-35.38-20.08,16.38-43.03,29.05-67.42,37.29h0v.12l-.12-.12Z" class="st0"></path>
    <path d="M161.53,134.19c-19.84,5.26-38.61,14.22-55.1,26.54,21.87-1.08,41.48-11.12,55.1-26.54Z" class="st3"></path>
    <path d="M163.32,95.22c-38.73,7.77-73.75,26.54-101.6,54.27,3.71,2.27,7.77,4.18,11.83,5.86,28.45-27.49,65.5-45.42,104.71-50.68.96-3.11,1.67-6.22,2.27-9.56h-17.09l-.12.12Z" class="st3"></path>
    <path d="M96.38,160.61l-.48-.6c20.92-17.21,45.9-29.17,72.44-34.66,2.75-4.18,5.14-8.49,7.05-13.15-35.14,5.38-68.37,21.52-94.43,45.66,4.9,1.43,10.04,2.27,15.3,2.75h.12Z" class="st3"></path>
  </g>
  <g>
    <polygon points="9.74 277.15 27.94 277.15 27.94 271.05 9.74 271.05 9.74 258.85 31.44 258.85 31.44 252.45 9.74 252.45 6.64 252.45 2.54 252.45 2.54 297.55 6.64 297.55 9.74 297.55 32.04 297.55 32.04 291.25 9.74 291.25 9.74 277.15" class="st0"></polygon>
    <path d="M63.14,275.85c1.2-1.4,2.2-3,3-4.8l8.2-18v-.6h-7.4l-7.4,16.6c-.6,1.5-1.5,2.8-2.6,3.8s-2.7,1.4-4.9,1.4h-3.9v-21.8h-7.3v45h7.3v-17h4.3c1.3,0,2.4-.1,3.5-.4l10.6,17.4h7.9v-.6l-12.7-19.9,1.2-1.2h0l.2.1Z" class="st0"></path>
    <polygon points="77.64 258.85 91.84 258.85 91.84 297.55 99.04 297.55 99.04 258.85 113.24 258.85 113.24 252.45 77.64 252.45 77.64 258.85" class="st0"></polygon>
    <rect height="45" width="7.3" y="252.45" x="119.74" class="st0"></rect>
    <polygon points="142.54 252.45 138.44 252.45 138.44 297.55 145.64 297.55 145.64 280.65 163.24 280.65 163.24 274.55 145.64 274.55 145.64 258.85 166.64 258.85 166.64 252.45 145.64 252.45 142.54 252.45" class="st0"></polygon>
    <path d="M197.84,252.25c-1.6-.2-3.2-.2-4.8-.2-3.1,0-5.8.3-8,.9s-4.1,1.6-5.6,2.9-2.7,2.9-3.6,4.9-1.6,4.3-2,6.9l-5,29.9h7.3l2.2-13.2h17v13.2h7.2v-40.7c0-1.3.2-2.3.3-3.1v-.8c-1.8-.4-3.4-.6-5-.8h0v.1ZM179.34,278.15l1.7-10.5c.4-2.2,1-3.9,1.7-5.3s1.9-2.4,3.4-3.1,3.5-1.1,6.1-1.1,1.7,0,2.5.1c.2,0,.4,0,.6.1v19.8h-16Z" class="st0"></path>
    <path d="M16.74,237.95h6.5l1.7-5.4v-.8h-6c0-.1-1.8-.1-1.8-.1-2.4-.2-4.4-1-6-2.2-1.6-1.3-2.4-2.8-2.6-4.7.4-1,.8-1.9,1.4-2.7,1-1.4,2.4-2.4,4-3.2,1.6-.7,3.5-1.1,5.5-1.1h4.3l1.5-5.4v-.8h-4.8c-3.7,0-6.9.6-9.5,1.9-2.6,1.3-4.6,3-6,5.2s-2.1,4.5-2.1,7,.5,4,1.6,5.9H1.74v6.2h13.1c.6,0,1.3.1,2,.1h0l-.1.1Z" class="st0"></path>
    <path d="M105.84,198.75c1.1,0,2-.3,2.7-1s1.1-1.6,1.1-2.8-.4-2.1-1.1-2.8-1.6-1.1-2.7-1.1-2,.4-2.7,1.1-1.1,1.6-1.1,2.8.4,2.1,1.1,2.8c.7.7,1.6,1,2.7,1Z" class="st0"></path>
    <path d="M96.74,199.95c1.1,0,2-.4,2.7-1.1s1.1-1.6,1.1-2.8-.4-2.1-1.1-2.8-1.6-1.1-2.7-1.1-2,.4-2.7,1.1-1.1,1.6-1.1,2.8.4,2.1,1.1,2.8,1.6,1.1,2.7,1.1Z" class="st0"></path>
    <path d="M63.04,237.95c1.7,0,3.3-.2,5-.6.9-.2,1.7-.5,2.6-.8.8.3,1.5.6,2.3.8,1.5.5,3.1.7,4.8.7h92.9c2.9,0,5.3-.3,7.3-.9s3.6-1.4,4.8-2.5,2.1-2.3,2.7-3.8c.5-1.4.8-3,.8-4.7s-.4-4-1.1-5.9c-.8-1.9-1.7-3.6-2.8-5.1s-2.2-2.8-3.2-3.8h-.8c-1.3.3-2.8.5-4.6.6-1.8,0-3.6.1-5.3.1h-39.7l18.4-17.2-3-4.6h-.6l-24.2,22.9c.1,2,.7,3.4,1.7,4.2,1,.7,2.1,1.1,3.3,1.1h43.7c1.5,0,2.7,0,3.7-.1,1,0,1.9-.2,2.9-.3.4,0,.9-.1,1.4-.2.8,1,1.5,2.1,2.1,3.3.8,1.8,1.2,3.5,1.2,5s-.6,3.3-1.8,4.1-3.1,1.2-5.8,1.2h-66.8v-26.2h-.6l-6.6.8v20.4c0,1.4.1,2.7.3,3.8,0,.4.1.8.2,1.1h-20.3c3.9-2.8,6.5-7.7,6.5-13.2,0-8.7-6.4-15.8-14.2-15.8s-14.2,7.1-14.2,15.8,2.6,10.4,6.5,13.2h-21.7v-34.9c0-1.2,0-2.4.1-3.5,0-1.1.2-2.1.4-2.9v-.5l-7.6.8v47.6h29.4-.1ZM70.14,209.65c4,0,7.2,3.9,7.2,8.8s-3.2,8.8-7.2,8.8-7.2-3.9-7.2-8.8,3.2-8.8,7.2-8.8Z" class="st0"></path>
    <path d="M203.34,189.55l-7.6.8v47.6h7.1v-41.5c0-1.2,0-2.4.1-3.5,0-1.1.2-2.1.4-2.9v-.5s0,0,0,0Z" class="st0"></path>
    <path d="M69.84,197.75c1.1,0,2-.4,2.7-1.1s1.1-1.6,1.1-2.8-.4-2.1-1.1-2.8-1.6-1.1-2.7-1.1-2,.4-2.7,1.1-1.1,1.6-1.1,2.8.4,2.1,1.1,2.8,1.6,1.1,2.7,1.1Z" class="st0"></path>
  </g>
</svg>